<svg width="1366" height="480" viewBox="0 0 1366 480" fill="none" xmlns="http://www.w3.org/2000/svg">
<path opacity="0.7" d="M1366 683C1366 593.307 1348.33 504.493 1314.01 421.627C1279.69 338.762 1229.38 263.469 1165.95 200.046C1102.53 136.624 1027.24 86.3143 944.373 51.9903C861.507 17.6664 772.693 3.22499e-05 683 3.11803e-05C593.307 3.01107e-05 504.493 17.6663 421.627 51.9903C338.762 86.3143 263.468 136.624 200.046 200.046C136.624 263.469 86.3142 338.762 51.9902 421.627C17.6662 504.493 -2.59343e-05 593.307 -2.98549e-05 683L282.105 683C282.105 630.354 292.475 578.223 312.622 529.584C332.769 480.946 362.298 436.751 399.525 399.525C436.751 362.298 480.945 332.769 529.584 312.622C578.223 292.475 630.354 282.105 683 282.105C735.646 282.105 787.777 292.475 836.416 312.622C885.054 332.769 929.249 362.298 966.475 399.525C1003.7 436.751 1033.23 480.946 1053.38 529.584C1073.53 578.223 1083.89 630.354 1083.89 683L1366 683Z" fill="white"/>
<path d="M1131.61 588.401C1110.4 485.406 1054.27 392.893 972.727 326.498C891.18 260.103 789.211 223.897 684.053 224L684.11 282.573C775.776 282.483 864.661 314.043 935.745 371.919C1006.83 429.795 1055.75 510.438 1074.24 600.218L1131.61 588.401Z" fill="url(#paint0_linear)"/>
<defs>
<linearGradient id="paint0_linear" x1="1081.29" y1="480.15" x2="659.213" y2="230.698" gradientUnits="userSpaceOnUse">
<stop stop-color="#E1EDFF"/>
<stop offset="1" stop-color="#E1EDFF" stop-opacity="0"/>
</linearGradient>
</defs>
</svg>
