<svg width="570" height="520" viewBox="0 0 570 520" fill="none" xmlns="http://www.w3.org/2000/svg">
<path d="M1020.63 221.176C1032.91 340.823 997.167 460.449 921.251 553.74C845.336 647.03 735.47 706.342 615.824 718.628C496.177 730.914 376.551 695.167 283.26 619.251C189.97 543.336 130.658 433.47 118.372 313.824C106.086 194.177 141.833 74.5506 217.749 -18.7396C293.664 -112.03 403.53 -171.342 523.176 -183.628C642.823 -195.914 762.449 -160.167 855.74 -84.2515C949.03 -8.33605 1008.34 101.53 1020.63 221.176L1020.63 221.176Z" stroke="#EB7B55" stroke-width="230"/>
<path d="M375.422 -34.7823C333.066 -8.71357 296.661 25.9655 268.568 67.0066C240.475 108.048 221.32 154.535 212.346 203.454C203.372 252.373 204.779 302.632 216.475 350.972C228.171 399.313 249.895 444.656 280.24 484.061" stroke="url(#paint0_linear)" stroke-width="50"/>
<path d="M432.11 489.317C398.208 468.319 369.57 439.829 348.397 406.036C327.223 372.244 314.077 334.047 309.969 294.381C305.861 254.716 310.899 214.636 324.697 177.221C338.495 139.806 360.685 106.052 389.563 78.5507" stroke="url(#paint1_linear)" stroke-width="10"/>
<path d="M678.449 259.755C678.449 319.641 629.902 368.188 570.016 368.188C510.13 368.188 461.583 319.641 461.583 259.755C461.583 199.869 510.13 151.322 570.016 151.322C629.902 151.322 678.449 199.869 678.449 259.755Z" fill="#4485D1"/>
<path d="M513.053 437.695C470.714 424.225 434.588 396.058 411.199 358.283C387.811 320.507 378.702 275.613 385.517 231.709C392.333 187.805 414.624 147.786 448.365 118.879C482.105 89.9726 525.07 74.0845 569.5 74.0845" stroke="#EB7B55" stroke-width="50"/>
<path d="M569.5 74.4114C596.348 74.4114 622.877 80.2279 647.261 91.4607C671.646 102.693 693.308 119.076 710.757 139.481C728.205 159.885 741.026 183.828 748.336 209.661C755.647 235.494 757.274 262.605 753.106 289.127C748.938 315.649 739.073 340.953 724.19 363.299C709.308 385.644 689.761 404.5 666.895 418.569C644.028 432.637 618.385 441.585 591.73 444.796C565.075 448.008 538.041 445.406 512.488 437.171" stroke="url(#paint2_linear)" stroke-width="30"/>
<path d="M535.442 386.559C514.702 380.966 495.659 370.351 479.995 355.652C464.331 340.953 452.528 322.622 445.629 302.279" stroke="url(#paint3_linear)" stroke-width="10"/>
<defs>
<linearGradient id="paint0_linear" x1="359.273" y1="22.2133" x2="295" y2="461" gradientUnits="userSpaceOnUse">
<stop stop-color="#EEF5FF"/>
<stop offset="1" stop-color="#EEF5FF" stop-opacity="0"/>
</linearGradient>
<linearGradient id="paint1_linear" x1="396.523" y1="78.5163" x2="430.086" y2="492.112" gradientUnits="userSpaceOnUse">
<stop stop-color="#4485D1" stop-opacity="0"/>
<stop offset="1" stop-color="#4485D1"/>
</linearGradient>
<linearGradient id="paint2_linear" x1="569.5" y1="59.4114" x2="569.5" y2="461.131" gradientUnits="userSpaceOnUse">
<stop stop-color="#EB7B55"/>
<stop offset="1" stop-color="#C65B37"/>
</linearGradient>
<linearGradient id="paint3_linear" x1="434" y1="301" x2="498.304" y2="374.976" gradientUnits="userSpaceOnUse">
<stop stop-color="#4485D1" stop-opacity="0"/>
<stop offset="1" stop-color="#4485D1"/>
</linearGradient>
</defs>
</svg>
