<svg width="188" height="80" viewBox="0 0 188 80" fill="none" xmlns="http://www.w3.org/2000/svg">
<g clip-path="url(#clip0)">
<path fill-rule="evenodd" clip-rule="evenodd" d="M34.9943 45.5375L14.494 65C9.05544 59.8369 6 52.834 6 45.532C6 30.3263 18.9838 18 35 18V31.3727C26.5207 31.373 19.6473 37.712 19.6473 45.532C19.6473 49.2874 21.2648 52.8887 24.1439 55.5441L34.9943 45.5375Z" fill="#4485D1"/>
<path d="M67 45.5001C67 63.4464 52.2224 78 33.9999 78C15.7776 78 1 63.4464 1 45.5001C1 27.5536 15.7776 13 33.9999 13" stroke="#4485D1" stroke-width="1.88976" stroke-miterlimit="22.9256"/>
<path d="M1 79L35 45" stroke="#4485D1" stroke-width="2.83464" stroke-miterlimit="22.9256"/>
<path fill-rule="evenodd" clip-rule="evenodd" d="M50.0006 41C46.3786 38.5998 44 34.5575 44 29.9747C44 26.6794 45.2303 23.6637 47.268 21.3367L47.2665 21.3356C49.3042 19.0086 50.5345 15.9929 50.5345 12.6977C50.5345 11.4146 50.3476 10.1742 49.9998 9C53.6214 11.3999 56 15.4425 56 20.0253C56 23.3206 54.7697 26.3363 52.7324 28.6633L52.7335 28.6644C50.6958 30.9914 49.4655 34.0071 49.4655 37.3023C49.4655 38.5854 49.6524 39.8258 50.0006 41Z" fill="#EB7B55"/>
<path d="M56 46C56 58.1483 46.5565 68 34.9117 68C29.3197 68 23.952 65.6795 20 61.5566" stroke="#4485D1" stroke-width="1.88976" stroke-miterlimit="22.9256"/>
<path d="M35 35C40.5221 35 45 39.4781 45 45" stroke="#4485D1" stroke-width="1.88976" stroke-miterlimit="22.9256"/>
<path d="M36 46L36 -1.34234e-07" stroke="#4485D1" stroke-width="2.83464" stroke-miterlimit="22.9256"/>
<path d="M154 45H35" stroke="#4485D1" stroke-width="2.83464" stroke-miterlimit="22.9256"/>
<path fill-rule="evenodd" clip-rule="evenodd" d="M34.0001 41C36.7611 41 39 43.2389 39 46.0001C39 48.761 36.7611 51 34.0001 51C31.2391 51 29 48.761 29 46.0001C29 43.2389 31.2391 41 34.0001 41Z" fill="#4485D1"/>
<path d="M76.427 42.5662C76.427 42.6443 76.4059 42.7069 76.3637 42.7616C76.3254 42.8123 76.2533 42.8554 76.1474 42.8905C76.0454 42.9257 75.9012 42.9532 75.7148 42.9727C75.5281 42.9923 75.2949 43 75.0149 43C74.7353 43 74.5018 42.9923 74.3196 42.9727C74.1371 42.9532 73.9929 42.9257 73.8828 42.8905C73.7681 42.8554 73.6918 42.8123 73.6454 42.7616C73.5986 42.7069 73.5771 42.6404 73.5771 42.5662V39.0828H62.9457C62.6531 39.0828 62.4242 39.0047 62.2543 38.848C62.0848 38.6918 62 38.4531 62 38.1325V24.6449C62 24.5706 62.0253 24.5042 62.0805 24.4458C62.1354 24.3871 62.2247 24.3401 62.3478 24.3012C62.471 24.2659 62.6359 24.2344 62.8479 24.215C63.0604 24.1952 63.3231 24.1877 63.6368 24.1877C63.9552 24.1877 64.2221 24.1952 64.4257 24.215C64.6336 24.2344 64.7989 24.2659 64.922 24.3012C65.0447 24.3401 65.1337 24.3871 65.1805 24.4458C65.2315 24.5042 65.2568 24.5706 65.2568 24.6449V36.5963H71.2109V24.6449C71.2109 24.5706 71.2362 24.5042 71.2914 24.4458C71.3466 24.3871 71.4356 24.3401 71.5587 24.3012C71.6818 24.2659 71.8471 24.2344 72.0592 24.215C72.2713 24.1952 72.534 24.1877 72.8477 24.1877C73.166 24.1877 73.4329 24.1952 73.6366 24.215C73.8448 24.2344 74.0101 24.2659 74.1328 24.3012C74.256 24.3401 74.3449 24.3871 74.3917 24.4458C74.4423 24.5042 74.468 24.5706 74.468 24.6449V36.5963H75.8801C76.088 36.5963 76.2318 36.6394 76.3085 36.7292C76.3891 36.8151 76.427 36.9753 76.427 37.2139V42.5662ZM92.8096 38.6957C92.8096 38.7699 92.7839 38.8364 92.729 38.8951C92.6738 38.9538 92.5845 39.0004 92.4617 39.0397C92.339 39.075 92.1691 39.1061 91.957 39.1256C91.745 39.1454 91.4822 39.1532 91.1681 39.1532C90.8544 39.1532 90.5913 39.1454 90.3796 39.1256C90.1676 39.1061 90.0019 39.075 89.8834 39.0397C89.7603 39.0004 89.6755 38.9538 89.6287 38.8951C89.5777 38.8364 89.5524 38.7699 89.5524 38.6957V30.8804C89.5524 30.5835 89.5566 30.2904 89.5654 30.005C89.5739 29.7158 89.5861 29.4616 89.6034 29.2424H89.5777C89.5102 29.3482 89.4339 29.473 89.3407 29.614C89.2471 29.7547 89.1497 29.9032 89.0477 30.0595C88.9418 30.2161 88.8318 30.3763 88.7171 30.5407C88.5982 30.7047 88.4839 30.8652 88.3693 31.0173L82.7842 38.7073C82.7163 38.7894 82.6488 38.864 82.5805 38.9223C82.5084 38.9849 82.4194 39.0319 82.3048 39.0669C82.1947 39.1023 82.0589 39.1256 81.8978 39.1373C81.7368 39.1493 81.5247 39.1532 81.2704 39.1532C80.9479 39.1532 80.6852 39.1454 80.49 39.1256C80.2905 39.1061 80.1337 39.075 80.0236 39.0397C79.909 39.0004 79.8326 38.9499 79.7947 38.8912C79.7521 38.8286 79.7306 38.7544 79.7306 38.6723V24.6449C79.7306 24.5706 79.7563 24.5042 79.8112 24.4458C79.8664 24.3871 79.9557 24.3401 80.0827 24.3012C80.21 24.2659 80.3799 24.2344 80.5874 24.215C80.791 24.1952 81.0537 24.1877 81.3678 24.1877C81.6858 24.1877 81.9527 24.1952 82.1563 24.215C82.3646 24.2344 82.5295 24.2659 82.6526 24.3012C82.7757 24.3401 82.8647 24.3871 82.9115 24.4458C82.9621 24.5042 82.9878 24.5706 82.9878 24.6449V32.5071C82.9878 32.7493 82.9836 33.0113 82.9751 33.2849C82.9663 33.5625 82.954 33.8283 82.9368 34.0864H82.9621C83.1067 33.8595 83.2846 33.5819 83.5009 33.2616C83.7172 32.9409 83.942 32.6284 84.1709 32.3233L89.7645 24.6332C89.8239 24.559 89.8834 24.4925 89.9513 24.4338C90.0188 24.3755 90.1081 24.3284 90.2182 24.2892C90.3286 24.2542 90.4686 24.2266 90.6339 24.2111C90.7992 24.1952 91.0113 24.1877 91.2702 24.1877C91.5839 24.1877 91.8385 24.1952 92.0334 24.215C92.2282 24.2344 92.3808 24.2659 92.4997 24.3012C92.6144 24.3401 92.6949 24.3871 92.7413 24.4458C92.7881 24.5042 92.8096 24.5745 92.8096 24.6565V38.6957ZM108 25.4934C108 25.7161 107.992 25.9039 107.97 26.0644C107.949 26.2206 107.919 26.3455 107.877 26.4395C107.835 26.5371 107.784 26.6074 107.72 26.6506C107.661 26.6976 107.589 26.7209 107.517 26.7209H103.496V38.6723C103.496 38.7466 103.471 38.8169 103.416 38.8795C103.361 38.9382 103.271 38.9888 103.148 39.028C103.026 39.063 102.856 39.0948 102.644 39.1182C102.432 39.1415 102.169 39.1532 101.855 39.1532C101.541 39.1532 101.278 39.1415 101.066 39.1182C100.854 39.0948 100.685 39.063 100.562 39.028C100.439 38.9888 100.349 38.9382 100.294 38.8795C100.239 38.8169 100.214 38.7466 100.214 38.6723V26.7209H96.1933C96.1132 26.7209 96.0411 26.6976 95.9816 26.6506C95.9264 26.6074 95.8758 26.5371 95.8332 26.4395C95.7949 26.3455 95.7611 26.2206 95.7396 26.0644C95.7185 25.9039 95.7101 25.7161 95.7101 25.4934C95.7101 25.2668 95.7185 25.0713 95.7396 24.9111C95.7611 24.7506 95.7949 24.6215 95.8332 24.5279C95.8758 24.4299 95.9264 24.3634 95.9816 24.3207C96.0411 24.2775 96.1132 24.2581 96.1933 24.2581H107.517C107.589 24.2581 107.657 24.2775 107.72 24.3207C107.784 24.3634 107.835 24.4299 107.877 24.5279C107.919 24.6215 107.949 24.7506 107.97 24.9111C107.992 25.0713 108 25.2668 108 25.4934ZM114.607 33.3122C114.607 33.758 114.561 34.0666 114.471 34.2427C114.378 34.4188 114.234 34.5086 114.034 34.5086H108.857C108.649 34.5086 108.5 34.4188 108.407 34.2388C108.318 34.0592 108.271 33.7502 108.271 33.3122C108.271 32.8822 108.318 32.5814 108.407 32.4053C108.5 32.2296 108.649 32.1394 108.857 32.1394H114.034C114.136 32.1394 114.221 32.1589 114.289 32.1981C114.361 32.237 114.421 32.2999 114.471 32.3936C114.518 32.4834 114.556 32.6086 114.577 32.761C114.599 32.9137 114.607 33.0976 114.607 33.3122ZM128.046 31.5568C128.046 32.8784 127.881 34.0277 127.554 35.0011C127.228 35.9747 126.753 36.784 126.125 37.425C125.501 38.0663 124.734 38.5472 123.826 38.864C122.919 39.1804 121.871 39.3409 120.688 39.3409C120.281 39.3409 119.866 39.3133 119.442 39.2546C119.013 39.2002 118.61 39.1217 118.233 39.028C117.855 38.9343 117.52 38.8208 117.228 38.6918C116.931 38.5627 116.727 38.4454 116.613 38.3439C116.494 38.2421 116.418 38.1562 116.384 38.0897C116.346 38.0197 116.312 37.9295 116.291 37.816C116.265 37.7064 116.244 37.5739 116.231 37.4133C116.219 37.2571 116.214 37.0616 116.214 36.8233C116.214 36.4478 116.253 36.1741 116.324 36.0062C116.401 35.8379 116.507 35.752 116.651 35.752C116.749 35.752 116.884 35.8103 117.058 35.9316C117.232 36.0529 117.47 36.1819 117.771 36.3188C118.067 36.4595 118.441 36.5885 118.894 36.7016C119.348 36.819 119.899 36.8777 120.557 36.8777C121.142 36.8777 121.677 36.7918 122.147 36.62C122.618 36.4478 123.029 36.1858 123.373 35.8337C123.716 35.4819 123.988 35.0403 124.187 34.5125C124.386 33.985 124.501 33.3631 124.535 32.6556H117.847C117.762 32.6556 117.69 32.6362 117.635 32.593C117.576 32.5499 117.525 32.4834 117.482 32.3897C117.444 32.2999 117.41 32.1787 117.389 32.0298C117.368 31.8778 117.359 31.6978 117.359 31.4825C117.359 31.2676 117.368 31.0841 117.389 30.9314C117.41 30.779 117.444 30.6577 117.482 30.5679C117.525 30.4816 117.576 30.4152 117.635 30.3724C117.69 30.3293 117.762 30.3098 117.847 30.3098H124.497C124.441 29.6883 124.301 29.141 124.085 28.6601C123.869 28.1832 123.589 27.7805 123.241 27.4521C122.889 27.1197 122.474 26.8733 121.982 26.7089C121.494 26.5449 120.951 26.4628 120.362 26.4628C119.823 26.4628 119.348 26.5215 118.933 26.635C118.517 26.7481 118.156 26.8733 117.855 27.0101C117.55 27.1431 117.304 27.2721 117.113 27.3895C116.923 27.5065 116.782 27.5652 116.689 27.5652C116.638 27.5652 116.592 27.5496 116.545 27.5146C116.503 27.4793 116.46 27.4206 116.426 27.3425C116.396 27.2604 116.367 27.1547 116.346 27.014C116.324 26.8775 116.316 26.7054 116.316 26.5021C116.316 26.2716 116.321 26.0757 116.333 25.9155C116.346 25.7554 116.367 25.6263 116.392 25.521C116.418 25.4192 116.447 25.3293 116.486 25.259C116.52 25.1844 116.579 25.114 116.66 25.0479C116.736 24.9776 116.897 24.8835 117.139 24.7584C117.376 24.6332 117.682 24.5119 118.051 24.4027C118.419 24.2931 118.839 24.1994 119.306 24.1213C119.777 24.0392 120.29 24 120.845 24C121.948 24 122.945 24.1602 123.835 24.4769C124.726 24.7937 125.485 25.2703 126.104 25.9039C126.727 26.5371 127.207 27.3269 127.541 28.2691C127.877 29.2152 128.046 30.3098 128.046 31.5568ZM133.733 37.425C133.733 38.1325 133.602 38.6136 133.33 38.8558C133.063 39.1022 132.58 39.2235 131.884 39.2235C131.189 39.2235 130.705 39.1023 130.442 38.864C130.175 38.6214 130.043 38.1639 130.043 37.4915C130.043 36.7762 130.179 36.2915 130.446 36.049C130.718 35.8026 131.205 35.6813 131.91 35.6813C132.596 35.6813 133.072 35.8026 133.339 36.0412C133.602 36.2837 133.733 36.7448 133.733 37.425ZM148.164 36.8424C148.164 37.034 148.16 37.1984 148.148 37.3313C148.135 37.4643 148.114 37.5813 148.088 37.6753C148.067 37.7729 148.033 37.8553 147.991 37.9256C147.949 37.9917 147.885 38.0702 147.791 38.1562C147.702 38.2421 147.524 38.3556 147.265 38.4924C147.002 38.6253 146.684 38.7582 146.307 38.883C145.93 39.0047 145.501 39.11 145.018 39.1921C144.534 39.2744 144.009 39.3172 143.445 39.3172C142.346 39.3172 141.354 39.1609 140.468 38.848C139.581 38.5355 138.826 38.0663 138.207 37.4445C137.584 36.8233 137.109 36.049 136.778 35.1146C136.447 34.184 136.282 33.1011 136.282 31.8658C136.282 30.6071 136.464 29.4889 136.829 28.5117C137.194 27.5341 137.703 26.7131 138.356 26.0485C139.009 25.3838 139.793 24.8835 140.709 24.5395C141.621 24.1952 142.63 24.0233 143.733 24.0233C144.178 24.0233 144.607 24.0587 145.022 24.1287C145.438 24.1952 145.82 24.2853 146.172 24.3988C146.523 24.5081 146.837 24.6371 147.121 24.7817C147.401 24.9305 147.601 25.0557 147.711 25.1572C147.821 25.2629 147.898 25.3484 147.94 25.4149C147.982 25.4856 148.016 25.5715 148.037 25.6769C148.063 25.7868 148.084 25.9116 148.097 26.0562C148.11 26.2009 148.114 26.3769 148.114 26.5919C148.114 26.8189 148.105 27.014 148.088 27.1745C148.071 27.3347 148.042 27.4637 148.003 27.5613C147.961 27.6592 147.91 27.7335 147.855 27.7766C147.796 27.8233 147.728 27.847 147.656 27.847C147.533 27.847 147.376 27.7805 147.185 27.6472C146.994 27.5146 146.748 27.3658 146.447 27.2018C146.146 27.0374 145.786 26.8889 145.366 26.7559C144.95 26.6233 144.454 26.5569 143.873 26.5569C143.237 26.5569 142.668 26.6781 142.168 26.9164C141.668 27.159 141.244 27.4987 140.891 27.9446C140.539 28.3943 140.272 28.9338 140.09 29.567C139.908 30.1967 139.819 30.9119 139.819 31.7056C139.819 32.5732 139.916 33.3281 140.111 33.9652C140.306 34.5987 140.582 35.1262 140.942 35.5367C141.299 35.9475 141.736 36.2562 142.245 36.4556C142.753 36.6589 143.326 36.7607 143.962 36.7607C144.539 36.7607 145.039 36.6978 145.463 36.573C145.883 36.4478 146.243 36.3071 146.544 36.1582C146.85 36.0062 147.096 35.869 147.291 35.7481C147.486 35.6269 147.634 35.5643 147.745 35.5643C147.825 35.5643 147.893 35.5798 147.94 35.6109C147.991 35.6424 148.033 35.7011 148.067 35.7948C148.097 35.8849 148.122 36.0136 148.139 36.178C148.156 36.346 148.164 36.5652 148.164 36.8424ZM154 37.425C154 38.1325 153.868 38.6136 153.597 38.8558C153.33 39.1022 152.846 39.2235 152.151 39.2235C151.455 39.2235 150.972 39.1023 150.709 38.864C150.442 38.6214 150.31 38.1639 150.31 37.4915C150.31 36.7762 150.446 36.2915 150.713 36.049C150.985 35.8026 151.472 35.6813 152.176 35.6813C152.863 35.6813 153.338 35.8026 153.605 36.0412C153.868 36.2837 154 36.7448 154 37.425Z" fill="#4485D1"/>
</g>
<defs>
<clipPath id="clip0">
<rect width="188" height="80" fill="white"/>
</clipPath>
</defs>
</svg>
