<svg width="458" height="400" viewBox="0 0 458 400" fill="none" xmlns="http://www.w3.org/2000/svg">
<path d="M553 400C553 451.915 510.915 494 459 494C407.085 494 365 451.915 365 400C365 348.085 407.085 306 459 306C510.915 306 553 348.085 553 400Z" fill="#FAFAFA"/>
<path fill-rule="evenodd" clip-rule="evenodd" d="M380.856 166.471C443.65 138.065 514.647 133.565 580.513 153.817L603.489 79.0922C519.424 53.2443 428.811 58.9872 348.666 95.2423C268.522 131.497 204.359 195.77 168.228 275.991C132.097 356.212 126.483 446.862 152.441 530.917C178.398 614.972 227.748 686.38 302.808 732.219L343.541 665.494C284.73 629.578 247.448 573.688 227.11 507.829C206.772 441.971 211.17 370.945 239.479 308.091C267.789 245.236 318.061 194.877 380.856 166.471Z" fill="#FAFAFA"/>
</svg>
